<svg  viewBox="0 0 30 40" fill="none" xmlns="http://www.w3.org/2000/svg">
<g clip-path="url(#clip0)">
<path d="M24.8031 40.0001L19.2979 34.4879V24.8152H24.8031V40.0001Z" fill="#07C8F9"/>
<path d="M19.3798 21.2677H19.302V15.1705H19.384C20.2793 15.1705 21.1545 14.9046 21.8989 14.4066C22.6433 13.9085 23.2235 13.2006 23.5661 12.3723C23.9087 11.5441 23.9983 10.6327 23.8235 9.75346C23.6488 8.87423 23.2176 8.06663 22.5844 7.4328C21.9512 6.79897 21.1446 6.36738 20.2664 6.19262C19.3883 6.01785 18.4781 6.10775 17.651 6.45096C16.8239 6.79417 16.117 7.37526 15.6197 8.12075C15.1224 8.86624 14.8571 9.74264 14.8573 10.6391C14.8573 10.6734 14.8573 10.7087 14.8573 10.743H8.76063C8.76063 10.7087 8.76063 10.6734 8.76063 10.6391C8.75816 8.53362 9.37957 6.47471 10.5462 4.72297C11.7128 2.97123 13.3722 1.6054 15.3144 0.798331C17.2566 -0.00873694 19.3943 -0.22076 21.4568 0.189094C23.5194 0.598948 25.4142 1.61226 26.9014 3.10078C28.3886 4.5893 29.4013 6.48611 29.8115 8.55117C30.2216 10.6162 30.0107 12.7567 29.2054 14.7017C28.4001 16.6467 27.0367 18.3088 25.2877 19.4776C23.5386 20.6464 21.4826 21.2694 19.3798 21.2677Z" fill="#084C61"/>
<path d="M15.0586 30.2432L9.56588 24.7434V20.8053H5.63285L0 15.1653H15.0586V30.2432Z" fill="#07C8F9"/>
</g>
<defs>
<clipPath id="clip0">
<rect width="30" height="40" fill="white"/>
</clipPath>
</defs>
</svg>
